<svg xmlns="http://www.w3.org/2000/svg" viewBox="0 0 50 51">
  <g fill="none" fill-rule="evenodd">
    <path fill-opacity=".06" fill="#000" d="M25 30.92519798A23.6111111 6.59722222 0 1 0 25 44.11964242A23.6111111 6.59722222 0 1 0 25 30.92519798Z"/>
    <path fill="#FFF" d="M6.25 21.4035599L16.909451 21.4035599 43.75 21.4035599 43.0555556 37.960178 6.94444444 37.5224202z"/>
    <path d="M6.25,21.0572501 L12.2409734,10.6441443 C12.9547078,9.40357927 14.2768743,8.63888889 15.7081039,8.63888889 L34.2918961,8.63888889 C35.7231257,8.63888889 37.0452922,9.40357927 37.7590266,10.6441443 L43.75,21.0572501 L43.75,21.0572501 L33.1403944,21.4035599 L29.9570719,26.0640869 L19.5156521,26.0640869 L16.909451,21.4035599 L6.25,21.0572501 Z" fill="#F0F0F0"/>
    <path d="M34.9987825,7.94444444 C36.1871526,7.94444444 37.2889031,8.55177179 37.9246726,9.54701824 L38.0084444,9.68511752 L44.3519324,20.7109402 L44.2788315,20.7528544 C44.3821094,20.8740743 44.4444444,21.0312455 44.4444444,21.2029758 L44.4444444,21.2029758 L44.4444444,35.0918647 C44.4444444,37.0095201 42.8898776,38.5640869 40.9722222,38.5640869 L40.9722222,38.5640869 L9.02777778,38.5640869 C7.1101224,38.5640869 5.55555556,37.0095201 5.55555556,35.0918647 L5.55555556,35.0918647 L5.55555556,21.2029758 C5.55555556,21.0312455 5.6178906,20.8740743 5.7211685,20.7528544 L5.64806762,20.7109402 L11.9915556,9.68511752 C12.5841792,8.65505902 13.6600278,8.00294652 14.8397395,7.94818826 L15.0012175,7.94444444 L34.9987825,7.94444444 Z M16.7368056,21.8974202 L6.94444444,21.8974202 L6.94444444,35.0918647 C6.94444444,36.2013653 7.81174998,37.1082959 8.90536612,37.1716614 L8.90536612,37.1716614 L9.02777778,37.175198 L40.9722222,37.175198 C42.1228155,37.175198 43.0555556,36.2424579 43.0555556,35.0918647 L43.0555556,35.0918647 L43.0555556,21.8974202 L33.2972222,21.8974202 L31.4557908,25.5548894 C31.1226415,26.2163649 30.4654589,26.6480429 29.733233,26.6965397 L29.733233,26.6965397 L29.595122,26.701105 L20.4392103,26.701105 C19.652287,26.701105 18.9325126,26.2577071 18.5785415,25.5548894 L18.5785415,25.5548894 L16.7368056,21.8974202 Z M34.9987825,9.33333333 L15.0012175,9.33333333 C14.3023748,9.33333333 13.6534574,9.68338081 13.268771,10.2595295 L13.1954203,10.3777372 L7.36655556,20.5084444 L17.1642673,20.5085314 C17.3937866,20.5085314 17.6061689,20.6216902 17.7347226,20.8069242 L17.7844902,20.8906032 L19.8189874,24.9301443 C19.9369777,25.1644168 20.1769025,25.3122161 20.4392103,25.3122161 L20.4392103,25.3122161 L29.595122,25.3122161 C29.8574298,25.3122161 30.0973546,25.1644168 30.2153449,24.9301443 L30.2153449,24.9301443 L32.2498421,20.8906032 C32.3678325,20.6563307 32.6077572,20.5085314 32.870065,20.5085314 L32.870065,20.5085314 L42.6325556,20.5084444 L36.8045797,10.3777372 C36.4560766,9.77199255 35.8290554,9.38408603 35.1378219,9.33796391 L34.9987825,9.33333333 Z" fill="#B2B2B2" fill-rule="nonzero"/>
  </g>
</svg>
